<svg xmlns="http://www.w3.org/2000/svg" width="74" height="74" viewBox="0 0 74 74"><g><g><path fill="#e3000f" d="M18.59 6.549c.043-.62.044-1.204.132-1.775.42-2.723 2.826-4.78 5.584-4.788 2.696-.007 5.391-.012 8.087.002 2.19.013 3.842 1.001 4.976 2.854.53.867.778 1.824.769 2.844-.003.272 0 .544 0 .846.107.006.2.016.292.016h3.224c.921.001 1.355.435 1.358 1.361.003.723 0 1.445 0 2.167v.312h10.812c2.045 0 3.686 1.38 4.039 3.395.014.078.029.158.029.236-.002 1.365-.008 2.73-.009 4.095 0 .456.015.913.015 1.37l.001 33.482v17.118c0 2.083-1.818 3.902-3.898 3.901H7.54c-1.198 0-2.396.002-3.595 0-2.14-.003-3.93-1.804-3.93-3.95.001-6.746.004-13.492.004-20.238 0-5.418-.003-10.835-.004-16.253 0-6.472-.007-12.945.007-19.418.002-.873.367-1.646.932-2.307.819-.96 1.875-1.43 3.135-1.431a2603.5 2603.5 0 0 1 9.382.004c.25.001.333-.057.327-.317-.017-.748-.006-1.497-.006-2.246 0-.832.45-1.28 1.292-1.28H18.59zm-4.798 6.117H4.096c-1.063 0-1.821.75-1.822 1.805l-.002 17.085v38.382a1.758 1.758 0 0 0 1.56 1.772c.269.034.544.02.817.02 10.43.001 20.86 0 31.29.002.176 0 .351.032.526.03.64-.006 1.28-.03 1.92-.03 5.127-.002 10.254.004 15.381-.013a2.234 2.234 0 0 0 1.025-.27c.615-.338.86-.92.859-1.614l-.001-42.097V14.47c0-1.029-.775-1.805-1.8-1.805H43.012c0 1.052.003 2.064-.002 3.076-.001.174-.013.354-.059.521-.15.542-.57.814-1.235.814H15.008c-.762 0-1.216-.453-1.216-1.215V12.98v-.315zm2.26 2.122h24.651V8.846h-24.65v5.942zm19.833-8.251c0-.308.008-.58 0-.851-.062-1.969-1.608-3.452-3.578-3.448-2.598.005-5.196-.004-7.794.004-1.517.004-2.622.694-3.295 2.055-.352.711-.337 1.47-.286 2.24h14.953zM74.01 40.989c0 5.267.012 10.536-.017 15.802-.003.536-.22 1.08-.39 1.603-1.532 4.746-3.076 9.488-4.617 14.232-.065.2-.127.402-.2.6-.18.49-.575.763-1.09.76a1.09 1.09 0 0 1-1.054-.77c-.588-1.798-1.167-3.599-1.75-5.399-.378-1.161-.759-2.323-1.137-3.486-.756-2.326-1.513-4.65-2.263-6.978a1.913 1.913 0 0 1-.084-.572c-.006-1.576-.003-3.152-.003-4.73V25.455c0-2.4 1.79-4.38 4.17-4.579.647-.054 1.302-.019 1.954-.011.889.01 1.786-.04 2.664.064 2.134.253 3.82 2.237 3.819 4.39-.003 5.224-.001 10.447-.002 15.67zm-2.269-9.656h-8.045v24.422h8.045V31.333zm.012-2.288v-.277c0-1.118.001-2.236-.002-3.353a2.285 2.285 0 0 0-2.253-2.29 143.004 143.004 0 0 0-3.591 0c-1.218.016-2.215 1.05-2.215 2.267v3.653h8.061zM64.113 58.07l3.578 11.02.054-.002L71.32 58.07h-7.207zm-34.979 8.877h3.071v-.306-20.638c0-.687.283-1.109.854-1.262.1-.026.208-.031.313-.031 1.77-.002 3.54-.002 5.312-.002.694 0 1.153.46 1.153 1.16v21.091h3.325v-.91-25.95c0-.783.463-1.249 1.249-1.25 1.726-.004 3.453-.003 5.18 0 .74.001 1.21.499 1.21 1.27v26.843h2.56c.653 0 1.136.46 1.144 1.091.008.65-.46 1.144-1.108 1.168h-.106l-12.13.002-33.398-.002c-.595 0-1.06-.337-1.18-.861a1.12 1.12 0 0 1 1.077-1.394c.863-.009 1.726-.004 2.59-.004h.32v-.57-10.306c0-.777.45-1.229 1.227-1.229h5.153c.793 0 1.249.455 1.249 1.24V66.945h3.327v-.309l-.001-15.062c0-.744.455-1.205 1.195-1.206h5.18c.784 0 1.233.446 1.233 1.221l.001 15.063v.296zm19.362.001V41.15h-3.07v25.798h3.07zm-10.925.003V46.989h-3.07v19.962h3.07zM23.803 52.636v14.311h3.05V52.636h-3.05zM15.9 66.949V57.14h-3.063v9.809H15.9zm4.365-19.373c-7.585.022-14.007-6.13-13.881-14.182C6.5 26.006 12.313 19.69 20.4 19.665c7.757-.021 13.676 6.065 13.9 13.44.246 8.15-6.19 14.466-14.036 14.47zM8.743 35.02c.564 4.877 3.975 8.796 8.904 9.97 4.682 1.114 9.107-.775 11.535-3.768l-1.253-.878c-2.584-1.818-5.167-3.637-7.756-5.448a.78.78 0 0 0-.437-.125c-1.002.02-2.004.064-3.006.092-1.987.055-3.975.11-5.962.154-.667.015-1.334.003-2.025.003zm-.05-2.206c3.51-.097 6.994-.194 10.49-.293L18.89 22.05c-5.016.453-9.874 4.918-10.197 10.765zm21.105-6.171c-.934.565-1.807 1.092-2.678 1.622-1.721 1.045-3.436 2.1-5.166 3.131-.37.22-.643.434-.505.908a.116.116 0 0 1 0 .053c-.092.501.118.83.565 1.052.136.068.228.083.355.012.375-.212.754-.418 1.132-.624 2.06-1.125 4.12-2.25 6.178-3.376.428-.235.853-.475 1.326-.738l-1.207-2.04zm-5.544 8.334c.674.471 1.311.922 1.957 1.361.057.039.184.027.252-.01 1.817-.962 3.63-1.93 5.441-2.905.069-.037.13-.157.13-.238a6.33 6.33 0 0 0-.055-.815c-.066-.483-.15-.965-.233-1.49l-7.492 4.097zm3.998-10.06c-.621-.446-1.187-.859-1.763-1.256-.063-.044-.21-.036-.28.008a709.758 709.758 0 0 0-4.771 3.058.35.35 0 0 0-.131.251c-.009.414 0 .827.012 1.24.008.277.033.553.054.882l6.879-4.183zm3.515 11.169l-3.372 1.796c.729.514 1.418.997 2.116 1.488a11.33 11.33 0 0 0 1.256-3.284zM21.205 24.169c.911-.583 1.765-1.13 2.662-1.702-.91-.288-1.785-.45-2.662-.491v2.193z"/></g></g></svg>