<svg xmlns="http://www.w3.org/2000/svg" width="70" height="70" viewBox="0 0 70 70"><g><g><path fill="#e3000f" d="M38.532 69.992V67.67h.744c8.606 0 17.211 0 25.817-.002 1.31 0 2.228-.677 2.512-1.832.327-1.335-.678-2.726-2.049-2.829-.266-.02-.535-.01-.803-.01l-25.472-.001h-.724v-2.31h25.488c.413-1.46.019-2.477-1.013-3.442-1.044-.977-2.166-1.307-3.6-1.283-5.162.086-10.326.034-15.49.034h-.766c0-.729-.01-1.411.015-2.09.003-.084.193-.209.311-.229.224-.037.457-.013.687-.013h14.826c-.12-.199-.182-.325-.267-.434-2.599-3.327-3.904-7.1-3.911-11.322-.003-1.506 0-3.012 0-4.555h-9.323c0 .29.009.553-.001.816-.087 2.27.012 4.567-.305 6.806-.63 4.455-2.84 8.1-6.282 10.995-.057.048-.124.087-.256.178l-1.334-1.67c1.038-1.193 2.116-2.264 2.993-3.478 1.926-2.664 2.808-5.7 2.838-8.982.013-1.453-.008-2.907.011-4.36.005-.367-.125-.509-.467-.648-1.877-.763-2.959-2.17-3.024-4.202-.062-1.95.85-3.416 2.603-4.3.379-.192.439-.34.289-.732-.917-2.389-1.807-4.789-2.7-7.187-.471-1.262-.016-1.915 1.329-1.922.42-.002.845-.034 1.261.008.538.054.745-.11.714-.683-.048-.877-.02-1.758-.01-2.637.01-.907.434-1.332 1.333-1.36 1.269-.04 1.27-.04 1.574-1.296.039-.162.067-.326.122-.592l-2.103.525c-.186.047-.37.095-.557.136-.857.19-1.525-.274-1.534-1.139a325.587 325.587 0 0 1 0-6.941c.01-.876.685-1.322 1.609-1.115.837.189 1.666.414 2.6.648l-.584-2.418c-.3-1.23.134-1.804 1.376-1.805 2.142-.001 4.284-.003 6.425 0 1.082.004 1.571.634 1.312 1.676-.194.78-.389 1.558-.58 2.337-.009.033.009.073.026.188.773-.19 1.54-.378 2.307-.568 1.257-.311 1.837.127 1.84 1.407.003 2.084.003 4.169 0 6.254-.003 1.27-.584 1.723-1.828 1.42-.758-.184-1.512-.384-2.406-.613.163.642.285 1.188.451 1.72.028.088.241.155.374.166.304.025.612.002.917.011.879.028 1.303.449 1.31 1.318.008 1.087.002 2.175.002 3.353.704 0 1.367-.004 2.03 0 1.252.011 1.73.701 1.292 1.871-.956 2.556-1.916 5.11-2.889 7.703l.507.275c1.724.935 2.635 2.397 2.55 4.344-.086 1.972-1.131 3.377-2.968 4.121-.411.168-.543.345-.532.776.051 1.91-.044 3.832.12 5.73.379 4.434 2.405 8.033 5.831 10.854.487.4.982.792 1.478 1.182 1.268.998 1.934 2.29 1.913 3.916-.002.172.021.348-.003.515-.084.578.084.883.694 1.133 2.031.835 3.158 3.026 2.728 5.084-.476 2.279-2.294 3.815-4.582 3.817-8.778.008-17.556.003-26.333.004h-.463zm19.261-48.95H42.596c.012.1.008.158.027.208.798 2.145 1.59 4.292 2.412 6.428.058.15.33.307.503.308 3.075.018 6.15.008 9.225.021.325.002.479-.109.583-.403.26-.737.549-1.465.823-2.197l1.624-4.364zM50.18 34.996c1.874 0 3.748.004 5.622-.001 1.469-.003 2.518-.968 2.53-2.316.011-1.344-1.04-2.342-2.5-2.345-3.787-.007-7.573-.008-11.36 0-1.421.003-2.463.992-2.471 2.315-.008 1.338 1.053 2.341 2.5 2.345 1.892.007 3.785.002 5.679.002zM48.17 2.348l.726 2.914c.31 1.243-.397 1.943-1.638 1.628-.956-.243-1.915-.473-2.904-.717v3.96c.224-.044.407-.072.585-.117.76-.189 1.516-.392 2.277-.575 1.332-.32 1.998.368 1.66 1.697-.233.92-.455 1.843-.691 2.802h3.946c-.045-.226-.073-.392-.112-.555-.21-.873-.458-1.737-.627-2.617-.18-.936.49-1.564 1.419-1.387.187.036.372.086.557.131l2.59.636V6.237c-.083-.01-.123-.024-.157-.015-.945.231-1.89.469-2.836.698-1.076.26-1.764-.397-1.561-1.49.024-.132.063-.26.095-.39l.661-2.692h-3.99zm-2.627 16.277h9.253v-2.258h-9.253v2.258zM32.692 60.64c2.165.165 3.696 1.18 4.393 3.232 1.009 2.976-1.194 6.1-4.328 6.108-9.39.025-18.78.018-28.17.003C2.244 69.98.249 68.115.02 65.802c-.232-2.344 1.321-4.479 3.638-5.004.165-.037.328-.083.498-.127-2.629-4.515-2.501-6.667.635-10.63-.14-.067-.275-.129-.408-.196-1.29-.652-2.036-1.705-2.045-3.145-.03-5.106-.063-10.213.006-15.318.062-4.536 3.177-8.165 7.642-9.05.444-.089.545-.253.538-.666a163.096 163.096 0 0 1-.005-4.016c.007-.881.42-1.319 1.3-1.317 3.117.007 6.242-.106 9.348.087 6.122.38 11.016 3.167 14.671 8.07 2.585 3.465 3.812 7.413 3.825 11.733.011 3.766-.005 7.534.01 11.3.004.639-.232 1.08-.743 1.45-1.192.865-2.351 1.773-3.542 2.638-.3.217-.393.45-.396.81-.01 1.203.006 2.411-.113 3.605-.157 1.583-.863 2.956-1.898 4.158-.087.102-.178.2-.261.306-.02.024-.014.07-.028.151zM12.844 18.735v.606c0 1.28.008 2.561-.004 3.842-.007.813-.408 1.228-1.213 1.3-.19.018-.381.026-.572.044-3.54.35-6.296 3.146-6.354 6.684-.084 5.122-.033 10.246-.027 15.37.001.787.474 1.232 1.268 1.25.65.016 1.3.005 1.95.004 2.307-.007 3.75-1.443 3.77-3.758.007-.975.02-1.951-.005-2.925-.017-.686.251-1.149.85-1.494 1.487-.86 2.945-1.774 4.434-2.633.413-.238.604-.497.573-.99-.046-.717-.012-1.439-.012-2.164h2.336c0 1.012-.046 1.986.013 2.953.053.864-.307 1.382-1.035 1.797-1.494.85-2.949 1.768-4.43 2.64-.282.165-.4.347-.394.677.017.879.028 1.76-.012 2.637-.129 2.814-2.18 5.063-4.96 5.483-.2.03-.42.09-.58.207-.68.493-1.382.97-2.003 1.531-1.423 1.287-1.964 2.905-1.678 4.81.263 1.746 1.477 2.841 2.658 3.96.093.088.284.1.429.1 6.347.004 12.695.044 19.042-.016 3.26-.03 5.754-2.552 5.777-5.778.042-5.965.142-11.933-.033-17.894-.154-5.247-2.805-9.054-7.547-11.345-1.934-.934-4.012-1.191-6.141-1.156-1.008.018-1.381-.36-1.456-1.349a5.925 5.925 0 0 0-.145-.96c-.502-2.05-2.523-3.615-4.5-3.433zM18.71 63c-4.684 0-9.367-.007-14.05.004-1.227.003-2.194.904-2.324 2.108-.122 1.13.679 2.224 1.845 2.487.275.062.568.07.852.07 9.08.003 18.16.003 27.24.003.172 0 .346.01.516-.01 1-.11 1.73-.613 2.073-1.565.558-1.544-.58-3.091-2.274-3.095-4.626-.01-9.252-.003-13.878-.002zm1.175-40.91c.935.12 1.993.172 3.011.4 7.316 1.64 12.097 7.643 12.104 15.143.003 3.555 0 7.111 0 10.666v.69c.707-.527 1.29-.988 1.901-1.409.319-.218.43-.466.429-.852-.015-3.48.002-6.958-.016-10.437-.005-.877-.04-1.763-.166-2.629-1.25-8.57-8.755-15.597-18.82-14.98-.046.002-.089.052-.047.025l1.604 3.383zM47.82 44.21l2.201.232c-.23 2.646-1.044 5.046-2.473 7.323l-1.827-1.269c.46-1.06.963-2.03 1.305-3.054.343-1.025.525-2.104.794-3.232zm.067-4.526h2.235v2.261h-2.235v-2.261zM9.29 39.619H7.024v-8.09H9.29v8.09zm.22 17.105c-.706.293-1.384.574-2.054.854-.91-1.44-.387-3.635 1.15-4.798.237.286.478.572.714.863.238.294.47.591.726.914-.702.592-.836 1.314-.535 2.167zm.298-26.897L8.208 28.39c.923-1.008 2.027-1.496 3.446-1.553 0 .729.012 1.424-.015 2.117-.003.084-.199.182-.322.237-.462.204-.93.393-1.51.635z"/></g></g></svg>