<svg xmlns="http://www.w3.org/2000/svg" width="88" height="76" viewBox="0 0 88 76"><g><g><path fill="#e3000f" d="M25.761 17.245l5.189 5.54c.46.492 1.208.583 1.77.214 7.564-4.975 14.94-4.974 22.512-.034.56.366 1.302.276 1.761-.21l5.027-5.325a1.397 1.397 0 0 1 2.078.055l.042.049a1.38 1.38 0 0 1-.053 1.847l-5.163 5.425a1.383 1.383 0 0 0-.11 1.777c2.303 3.113 3.566 6.683 3.565 10.712-.002 3.994-1.2 7.55-3.522 10.643a1.383 1.383 0 0 0 .113 1.795l5.118 5.27a1.386 1.386 0 0 1-.144 2.065c-.568.456-1.395.399-1.892-.135l-4.916-5.278a1.389 1.389 0 0 0-1.83-.178c-3.526 2.56-7.196 3.806-11.317 3.8-4.122-.008-7.777-1.297-11.2-3.71a1.39 1.39 0 0 0-1.813.185l-4.774 5.098a1.395 1.395 0 0 1-2.098-.072L24 56.65a1.383 1.383 0 0 1 .075-1.831l4.918-5.135a1.385 1.385 0 0 0 .112-1.783c-2.308-3.108-3.597-6.688-3.586-10.704.01-3.976 1.233-7.545 3.547-10.628.407-.542.362-1.3-.109-1.79l-5.3-5.514a1.385 1.385 0 0 1-.058-1.879l.092-.106a1.396 1.396 0 0 1 2.07-.036zm18.26 4.877c-8.61-.008-15.597 6.793-15.602 15.187-.004 8.305 6.974 15.108 15.544 15.153 8.487.044 15.606-6.847 15.605-15.104-.001-8.426-6.942-15.228-15.547-15.236zm10.493-6.369h-21.02a.48.48 0 0 1-.48-.479V.475a.48.48 0 0 1 .48-.479h21.02a.48.48 0 0 1 .48.48v14.798a.48.48 0 0 1-.48.48zm-2.347-3.236V5.664a.481.481 0 0 0-.801-.356l-7.051 6.235a.483.483 0 0 1-.638 0l-7.067-6.24a.482.482 0 0 0-.802.356v6.858c0 .265.216.48.48.48h15.4a.48.48 0 0 0 .48-.48zM39.131 3.742l4.544 4.04a.483.483 0 0 0 .643-.002l4.476-4.04a.48.48 0 0 0-.321-.835H39.45a.48.48 0 0 0-.319.837zM.704 28.312h20.634c.391 0 .708.317.708.707V42.09a.71.71 0 0 1-.711.707 3879 3879 0 0 0-3.545 0c-1.959 0-3.918-.032-5.874.024-.602.018-1.443.39-1.867.816-1.793 1.802-3.556 3.642-5.425 5.585-.442.46-1.22.149-1.22-.488v-5.211a.707.707 0 0 0-.708-.707H.704a.707.707 0 0 1-.708-.707V29.02c0-.39.317-.706.708-.706zm7.494 13.13c.829-.99 2.089-1.527 3.38-1.476 2.165.084 4.336.018 6.505.014.148 0 .296-.006.444-.014a.706.706 0 0 0 .668-.706v-7.363a.707.707 0 0 0-.708-.706H3.568a.707.707 0 0 0-.708.706v7.42c0 .39.317.706.708.706h1.406c.391 0 .709.316.709.707v3.136c0 .63 2.275-2.135 2.515-2.423zm79.8-12.16v16.01a.577.577 0 0 1-.577.576H66.514a.577.577 0 0 1-.578-.577v-16.01c0-.318.259-.576.578-.576H87.42c.319 0 .578.258.578.576zm-2.855 13.191V32.139a.577.577 0 0 0-.578-.577H69.378a.577.577 0 0 0-.578.577v10.334c0 .318.26.577.578.577h15.187c.32 0 .578-.259.578-.577zm-30.912 33.52H33.739a.751.751 0 0 1-.752-.75V59.573c0-.415.337-.75.752-.75H54.23c.415 0 .751.335.751.75v15.672a.75.75 0 0 1-.751.75zm-17.734-14.33a.754.754 0 0 0-.752.755c0 3.47.003 6.851-.003 10.232 0 .735.53.59.955.59 4.854.006 9.708-.011 14.562.02.773.004 1.017-.222 1.006-.999-.04-2.836-.016-5.674-.015-8.51v-1.336a.751.751 0 0 0-.752-.751zM74.603 12.14c.001 2.635-2.167 4.78-4.853 4.802-2.709.022-4.943-2.166-4.94-4.837.005-2.655 2.137-4.757 4.86-4.788 2.72-.032 4.932 2.131 4.933 4.823zm.001 50.326c-.017 2.611-2.265 4.781-4.914 4.746-2.731-.037-4.91-2.225-4.879-4.9.03-2.647 2.207-4.74 4.918-4.727 2.74.014 4.894 2.17 4.875 4.881zM18.15 7.205c2.742 0 4.851 2.056 4.864 4.743.012 2.707-2.166 4.862-4.9 4.851-2.656-.011-4.883-2.186-4.9-4.784-.016-2.696 2.152-4.81 4.936-4.81zm4.863 54.314c0 2.716-2.173 4.85-4.915 4.83-2.665-.018-4.875-2.19-4.881-4.797-.006-2.676 2.208-4.834 4.95-4.823 2.714.011 4.847 2.12 4.846 4.79zm16.795-17.732l-6.002 2.257-1.533-2.66c2.752-.958 4.32-3.255 6.273-5.067 3.503-3.249 6.913-6.598 10.493-10.031 2.21 3.743 4.37 7.406 6.6 11.182l-6.663 1.898c-.036 3.16-.818 4.282-3.456 5.018-2.701.754-3.95.221-5.712-2.597zm2.884-.688c.807 1.188 1.685.556 2.49.386.599-.126.963-.477.84-1.261l-3.33.876zm35.231-6.797c.81 0 1.639.028 2.465-.008.907-.038 1.31.3 1.1 1.235-.232 1.045-.377 2.116-.703 3.13-.11.347-.646.777-.999.788-1.589.051-3.182-.035-4.773-.072-.167-.004-.369-.073-.496-.004-1.059.577-1.055.584-2.121.434v-5.522l2.5.32c.747-.588 1.612-1.516 1.596-3.008-.003-.27.333-.543.512-.814.306.269.832.506.877.813.122.842.042 1.712.042 2.708zM41.139 64.117l5.759 3.293-5.76 3.235v-6.528zM8.51 35.778c0 .788-.64 1.426-1.429 1.426-.79 0-1.429-.638-1.429-1.426 0-.787.64-1.426 1.429-1.426s1.429.639 1.429 1.426zm4.415 0c0 .788-.64 1.426-1.428 1.426-.79 0-1.429-.638-1.429-1.426 0-.787.64-1.426 1.429-1.426s1.428.639 1.428 1.426zm4.286 0c0 .788-.64 1.426-1.428 1.426-.79 0-1.429-.638-1.429-1.426 0-.787.64-1.426 1.429-1.426s1.428.639 1.428 1.426z"/></g></g></svg>