<svg xmlns="http://www.w3.org/2000/svg" width="72" height="72" viewBox="0 0 72 72"><g><g><path fill="#eb0a19" d="M11.39 72h-.562c-1.536-.765-1.714-1.453-.734-2.911 3.225-4.797 6.454-9.59 9.68-14.386.137-.203.265-.411.451-.702h-.896c-5.807 0-11.614-.01-17.42.013-.853.003-1.503-.224-1.909-.998v-.985c.348-.789.964-1.067 1.806-1.03.928.04 1.858.01 2.796.01V9c-.953 0-1.862.008-2.771-.001C.67 8.987.153 8.475.148 7.323a602.135 602.135 0 0 1 0-5.624C.154.51.675.002 1.883.002c22.8-.002 45.6-.002 68.4 0 1.201 0 1.709.51 1.713 1.712.005 1.804.002 3.61 0 5.413 0 1.406-.451 1.866-1.837 1.872-.88.004-1.759 0-2.603 0v42.016c.992 0 1.928-.03 2.861.007 1.186.049 1.824 1.274 1.216 2.29-.343.571-.891.692-1.513.691-5.788-.005-11.576-.002-17.364 0-.195 0-.391.023-.659.039.175.271.295.466.424.657 3.228 4.8 6.457 9.599 9.687 14.398.976 1.45.791 2.16-.757 2.903h-.422c-.43-.377-.96-.685-1.273-1.142a3124.239 3124.239 0 0 1-11.08-16.31c-.256-.381-.512-.567-1.003-.562-2.972.028-5.945.015-8.917.018-.202 0-.405.023-.652.038v.736c0 5.103-.014 10.205.011 15.307.004.854-.239 1.495-.991 1.915h-.985c-.819-.36-1.047-1.007-1.044-1.867.022-5.104.01-10.207.009-15.31V54h-.832c-3.254 0-6.508.015-9.762-.012-.516-.004-.785.175-1.059.588a3287.81 3287.81 0 0 1-10.938 16.326c-.287.424-.745.735-1.123 1.098zM7.64 9.022v26.285c0 4.967.013 9.935-.016 14.903-.004.66.196.897.828.8.091-.014.187 0 .28 0 18.3 0 36.6-.005 54.9.016.717 0 .894-.189.892-.896-.021-13.45-.016-26.9-.016-40.35v-.758H7.64zM3.175 5.96h65.83V4.522 3.05H3.176V5.96zm48.571 29.125c0-3.678-.002-7.357.002-11.036 0-1.402.443-1.84 1.858-1.843 1.828-.004 3.655-.004 5.483.002 1.146.003 1.658.524 1.658 1.69.003 7.428.004 14.856.002 22.284 0 1.346-.463 1.803-1.826 1.807-1.828.005-3.656.005-5.483-.002-1.202-.004-1.69-.506-1.69-1.724-.003-3.726-.001-7.452-.001-11.178h-.003zm5.968 9.895V25.25h-2.926v19.73h2.926zM42.141 18.452c-1.645 1.03-3.11 1.948-4.577 2.865-1.608 1.004-3.232 1.984-4.817 3.024-.555.364-1.045.386-1.646.176-2.34-.817-4.695-1.59-7.034-2.41-.48-.167-.782-.117-1.152.265-2.558 2.644-5.143 5.26-7.723 7.88-.691.703-1.151.806-1.943.467-1.022-.438-1.271-1.517-.51-2.346.667-.724 1.373-1.411 2.063-2.112 2.218-2.255 4.449-4.497 6.647-6.77.62-.642 1.281-.777 2.096-.502 2.415.815 4.831 1.625 7.257 2.408.273.088.675.095.903-.045 2.953-1.812 5.885-3.656 8.822-5.495.09-.057.165-.138.33-.278-1.123-.38-2.157-.726-3.188-1.078-1.032-.351-1.525-1.168-1.23-2.023.286-.822 1.15-1.177 2.153-.867 2.033.627 4.065 1.257 6.095 1.895 1.373.431 1.747 1.177 1.315 2.567-.583 1.876-1.152 3.756-1.754 5.626a3.01 3.01 0 0 1-.559 1.03c-.455.527-1.295.67-1.791.385-.57-.327-.868-1.067-.663-1.775.258-.894.555-1.776.906-2.887zm-3.895 19.234c0-2.812-.002-5.622.002-8.433.001-1.333.486-1.813 1.83-1.816 1.804-.005 3.608-.004 5.411 0 1.238.003 1.757.518 1.758 1.748.002 5.669.002 11.337 0 17.005 0 1.32-.46 1.79-1.761 1.795-1.85.007-3.7.009-5.551 0-1.205-.007-1.686-.503-1.688-1.727-.003-2.858 0-5.715 0-8.572zm3.047-7.188v14.455h2.92V30.498h-2.92zm-7.544 9.865c0 1.967.003 3.934-.002 5.9-.003 1.221-.484 1.716-1.692 1.722-1.873.009-3.746.009-5.619 0-1.211-.007-1.684-.493-1.685-1.725a5195.01 5195.01 0 0 1-.002-11.87c0-1.166.497-1.676 1.665-1.685 1.896-.015 3.793-.017 5.689 0 1.178.012 1.643.509 1.645 1.688.002 1.99 0 3.98 0 5.97zm-5.96-4.778v9.37h2.917v-9.37h-2.917zm-7.395 7.311c0 1.17.008 2.34-.002 3.51-.01 1.046-.507 1.567-1.543 1.575-1.965.016-3.93.017-5.896 0-1.03-.008-1.548-.537-1.554-1.57-.013-2.34-.013-4.68-.003-7.02.005-1.028.54-1.573 1.551-1.58 1.942-.012 3.884-.011 5.826 0 1.12.007 1.61.513 1.62 1.646.008 1.147.001 2.293.001 3.44zM17.37 40.83h-2.931v4.134h2.93V40.83z"/></g></g></svg>