<svg xmlns="http://www.w3.org/2000/svg" width="50" height="50" viewBox="0 0 50 50"><g><g><path fill="#fff" d="M42.677 7.32C47.204 11.849 50 18.09 50 24.999c0 6.907-2.796 13.15-7.323 17.677A24.91 24.91 0 0 1 25 49.998c-6.908 0-13.15-2.797-17.677-7.323A24.908 24.908 0 0 1 0 24.998c0-6.907 2.796-13.15 7.323-17.677A24.907 24.907 0 0 1 25-.002c6.907 0 13.15 2.796 17.677 7.323zM25 1.95c-6.368 0-12.126 2.588-16.293 6.755S1.95 18.63 1.95 24.998c0 6.368 2.589 12.127 6.756 16.306A22.96 22.96 0 0 0 25 48.046a23.016 23.016 0 0 0 23.048-23.048 22.961 22.961 0 0 0-6.741-16.293C37.127 4.538 31.367 1.95 25 1.95zm5.966 17.94l-.304 3.1-.167 2.008h-3.778v12.763h-5.109V24.998h-2.575V19.89h2.548v-2.297c0-2.105.983-5.344 5.37-5.344h3.946v4.374h-2.865c-.471 0-1.122.236-1.122 1.218v2.05z"/></g></g></svg>