<svg xmlns="http://www.w3.org/2000/svg" width="57" height="57" viewBox="0 0 57 57"><defs><mask id="vk8yb" width="2" height="2" x="-1" y="-1"><path fill="#fff" d="M0 0h56v56H0z"/><path d="M.078 24.765c.06-.15.089-.306.097-.468.02-.422.115-.833.193-1.247.042-.228.08-.456.126-.683.123-.618.283-1.224.44-1.832.143-.554.312-1.098.495-1.637.185-.544.4-1.08.617-1.616.37-.91.807-1.784 1.264-2.649.356-.672.749-1.324 1.167-1.96A28.68 28.68 0 0 1 8.33 7.978a28.294 28.294 0 0 1 3.995-3.27 28.444 28.444 0 0 1 3.187-1.856 28.036 28.036 0 0 1 2.15-.967 28.35 28.35 0 0 1 1.71-.609c.577-.19 1.16-.358 1.745-.509.403-.103.816-.186 1.226-.273.51-.109 1.03-.164 1.538-.285.276-.067.573.013.838-.125L25.55 0h5.6c.013.13.132.115.203.125.381.056.764.09 1.144.156.527.093 1.052.19 1.575.308.352.08.704.162 1.054.251.363.093.723.197 1.081.308.365.114.726.24 1.089.357.446.144.884.313 1.316.492.552.23 1.1.473 1.637.738a30.293 30.293 0 0 1 3.274 1.877C45.52 5.93 47.3 7.497 48.905 9.265c.871.96 1.666 1.983 2.389 3.057a29.02 29.02 0 0 1 1.829 3.136c.407.809.774 1.635 1.099 2.478.228.59.429 1.194.615 1.801.14.457.28.914.393 1.375.15.61.277 1.227.392 1.846.125.672.19 1.352.312 2.023.055.3.066.608.065.915v4.156c-.001.482-.044.959-.145 1.433-.062.29-.08.59-.119.883-.089.677-.23 1.344-.382 2.006a26.683 26.683 0 0 1-.514 1.88c-.218.704-.456 1.4-.725 2.084a27.11 27.11 0 0 1-1.138 2.486 27.749 27.749 0 0 1-2.463 3.946 28.345 28.345 0 0 1-4.128 4.434 27.896 27.896 0 0 1-3.941 2.864 27.762 27.762 0 0 1-3.175 1.647 28.03 28.03 0 0 1-1.824.733c-.514.184-1.038.347-1.564.502a25.8 25.8 0 0 1-1.484.395c-.456.105-.921.188-1.382.28-.656.129-1.323.179-1.979.305-.314.06-.637.07-.958.07-1.327-.002-2.654-.001-3.98-.001-.534 0-1.062-.034-1.586-.15-.281-.061-.575-.075-.862-.112a19.149 19.149 0 0 1-1.519-.273 27.923 27.923 0 0 1-1.575-.393c-.55-.15-1.093-.32-1.635-.493a17.56 17.56 0 0 1-1.518-.568 34.635 34.635 0 0 1-2.063-.957 28.017 28.017 0 0 1-3.972-2.447 28.27 28.27 0 0 1-4.589-4.244 28.021 28.021 0 0 1-2.074-2.693 28.506 28.506 0 0 1-3.147-6.203 26.178 26.178 0 0 1-.615-1.96c-.141-.524-.27-1.05-.398-1.575-.113-.464-.16-.943-.26-1.41-.093-.427-.071-.87-.207-1.289L0 30.362v-4.726l.078-.871zm36.025 15.523c-2.124-1.735-4.239-3.48-6.357-5.223l-7.802-6.42c-.068-.056-.142-.103-.207-.16-.113-.097-.132-.206-.008-.306 1.018-.823 2.037-1.643 3.054-2.467 1.746-1.415 3.49-2.831 5.235-4.248 2.072-1.683 4.141-3.37 6.218-5.047.531-.43.923-.957 1.093-1.61.107-.413.153-.84.068-1.292-.187-1.003-.711-1.739-1.594-2.205a3.144 3.144 0 0 0-1.911-.335c-.927.117-1.578.68-2.253 1.23l-8.129 6.603c-2.863 2.323-5.724 4.65-8.591 6.968-.553.446-.976.975-1.174 1.662-.163.57-.145 1.14.019 1.717.25.884.87 1.464 1.548 2.018 1.883 1.535 3.755 3.084 5.632 4.627 3.078 2.533 6.156 5.066 9.235 7.597.752.62 1.501 1.243 2.267 1.845a2.799 2.799 0 0 0 1.953.6c1.255-.085 2.196-.698 2.713-1.87.166-.376.267-.782.248-1.208-.047-1.014-.467-1.831-1.257-2.476z"/></mask><filter id="vk8ya" width="78.5" height="78.9" x="-11" y="-11" filterUnits="userSpaceOnUse"><feOffset dx=".5" dy=".9" in="SourceGraphic" result="FeOffset1070Out"/><feGaussianBlur in="FeOffset1070Out" result="FeGaussianBlur1071Out" stdDeviation="0.4 0.4"/></filter></defs><g><g><g filter="url(#vk8ya)"><path fill="none" d="M.078 24.765c.06-.15.089-.306.097-.468.02-.422.115-.833.193-1.247.042-.228.08-.456.126-.683.123-.618.283-1.224.44-1.832.143-.554.312-1.098.495-1.637.185-.544.4-1.08.617-1.616.37-.91.807-1.784 1.264-2.649.356-.672.749-1.324 1.167-1.96A28.68 28.68 0 0 1 8.33 7.978a28.294 28.294 0 0 1 3.995-3.27 28.444 28.444 0 0 1 3.187-1.856 28.036 28.036 0 0 1 2.15-.967 28.35 28.35 0 0 1 1.71-.609c.577-.19 1.16-.358 1.745-.509.403-.103.816-.186 1.226-.273.51-.109 1.03-.164 1.538-.285.276-.067.573.013.838-.125L25.55 0h5.6c.013.13.132.115.203.125.381.056.764.09 1.144.156.527.093 1.052.19 1.575.308.352.08.704.162 1.054.251.363.093.723.197 1.081.308.365.114.726.24 1.089.357.446.144.884.313 1.316.492.552.23 1.1.473 1.637.738a30.293 30.293 0 0 1 3.274 1.877C45.52 5.93 47.3 7.497 48.905 9.265c.871.96 1.666 1.983 2.389 3.057a29.02 29.02 0 0 1 1.829 3.136c.407.809.774 1.635 1.099 2.478.228.59.429 1.194.615 1.801.14.457.28.914.393 1.375.15.61.277 1.227.392 1.846.125.672.19 1.352.312 2.023.055.3.066.608.065.915v4.156c-.001.482-.044.959-.145 1.433-.062.29-.08.59-.119.883-.089.677-.23 1.344-.382 2.006a26.683 26.683 0 0 1-.514 1.88c-.218.704-.456 1.4-.725 2.084a27.11 27.11 0 0 1-1.138 2.486 27.749 27.749 0 0 1-2.463 3.946 28.345 28.345 0 0 1-4.128 4.434 27.896 27.896 0 0 1-3.941 2.864 27.762 27.762 0 0 1-3.175 1.647 28.03 28.03 0 0 1-1.824.733c-.514.184-1.038.347-1.564.502a25.8 25.8 0 0 1-1.484.395c-.456.105-.921.188-1.382.28-.656.129-1.323.179-1.979.305-.314.06-.637.07-.958.07-1.327-.002-2.654-.001-3.98-.001-.534 0-1.062-.034-1.586-.15-.281-.061-.575-.075-.862-.112a19.149 19.149 0 0 1-1.519-.273 27.923 27.923 0 0 1-1.575-.393c-.55-.15-1.093-.32-1.635-.493a17.56 17.56 0 0 1-1.518-.568 34.635 34.635 0 0 1-2.063-.957 28.017 28.017 0 0 1-3.972-2.447 28.27 28.27 0 0 1-4.589-4.244 28.021 28.021 0 0 1-2.074-2.693 28.506 28.506 0 0 1-3.147-6.203 26.178 26.178 0 0 1-.615-1.96c-.141-.524-.27-1.05-.398-1.575-.113-.464-.16-.943-.26-1.41-.093-.427-.071-.87-.207-1.289L0 30.362v-4.726l.078-.871zm36.025 15.523c-2.124-1.735-4.239-3.48-6.357-5.223l-7.802-6.42c-.068-.056-.142-.103-.207-.16-.113-.097-.132-.206-.008-.306 1.018-.823 2.037-1.643 3.054-2.467 1.746-1.415 3.49-2.831 5.235-4.248 2.072-1.683 4.141-3.37 6.218-5.047.531-.43.923-.957 1.093-1.61.107-.413.153-.84.068-1.292-.187-1.003-.711-1.739-1.594-2.205a3.144 3.144 0 0 0-1.911-.335c-.927.117-1.578.68-2.253 1.23l-8.129 6.603c-2.863 2.323-5.724 4.65-8.591 6.968-.553.446-.976.975-1.174 1.662-.163.57-.145 1.14.019 1.717.25.884.87 1.464 1.548 2.018 1.883 1.535 3.755 3.084 5.632 4.627 3.078 2.533 6.156 5.066 9.235 7.597.752.62 1.501 1.243 2.267 1.845a2.799 2.799 0 0 0 1.953.6c1.255-.085 2.196-.698 2.713-1.87.166-.376.267-.782.248-1.208-.047-1.014-.467-1.831-1.257-2.476z" mask="url(&quot;#vk8yb&quot;)"/><path fill-opacity=".75" d="M.078 24.765c.06-.15.089-.306.097-.468.02-.422.115-.833.193-1.247.042-.228.08-.456.126-.683.123-.618.283-1.224.44-1.832.143-.554.312-1.098.495-1.637.185-.544.4-1.08.617-1.616.37-.91.807-1.784 1.264-2.649.356-.672.749-1.324 1.167-1.96A28.68 28.68 0 0 1 8.33 7.978a28.294 28.294 0 0 1 3.995-3.27 28.444 28.444 0 0 1 3.187-1.856 28.036 28.036 0 0 1 2.15-.967 28.35 28.35 0 0 1 1.71-.609c.577-.19 1.16-.358 1.745-.509.403-.103.816-.186 1.226-.273.51-.109 1.03-.164 1.538-.285.276-.067.573.013.838-.125L25.55 0h5.6c.013.13.132.115.203.125.381.056.764.09 1.144.156.527.093 1.052.19 1.575.308.352.08.704.162 1.054.251.363.093.723.197 1.081.308.365.114.726.24 1.089.357.446.144.884.313 1.316.492.552.23 1.1.473 1.637.738a30.293 30.293 0 0 1 3.274 1.877C45.52 5.93 47.3 7.497 48.905 9.265c.871.96 1.666 1.983 2.389 3.057a29.02 29.02 0 0 1 1.829 3.136c.407.809.774 1.635 1.099 2.478.228.59.429 1.194.615 1.801.14.457.28.914.393 1.375.15.61.277 1.227.392 1.846.125.672.19 1.352.312 2.023.055.3.066.608.065.915v4.156c-.001.482-.044.959-.145 1.433-.062.29-.08.59-.119.883-.089.677-.23 1.344-.382 2.006a26.683 26.683 0 0 1-.514 1.88c-.218.704-.456 1.4-.725 2.084a27.11 27.11 0 0 1-1.138 2.486 27.749 27.749 0 0 1-2.463 3.946 28.345 28.345 0 0 1-4.128 4.434 27.896 27.896 0 0 1-3.941 2.864 27.762 27.762 0 0 1-3.175 1.647 28.03 28.03 0 0 1-1.824.733c-.514.184-1.038.347-1.564.502a25.8 25.8 0 0 1-1.484.395c-.456.105-.921.188-1.382.28-.656.129-1.323.179-1.979.305-.314.06-.637.07-.958.07-1.327-.002-2.654-.001-3.98-.001-.534 0-1.062-.034-1.586-.15-.281-.061-.575-.075-.862-.112a19.149 19.149 0 0 1-1.519-.273 27.923 27.923 0 0 1-1.575-.393c-.55-.15-1.093-.32-1.635-.493a17.56 17.56 0 0 1-1.518-.568 34.635 34.635 0 0 1-2.063-.957 28.017 28.017 0 0 1-3.972-2.447 28.27 28.27 0 0 1-4.589-4.244 28.021 28.021 0 0 1-2.074-2.693 28.506 28.506 0 0 1-3.147-6.203 26.178 26.178 0 0 1-.615-1.96c-.141-.524-.27-1.05-.398-1.575-.113-.464-.16-.943-.26-1.41-.093-.427-.071-.87-.207-1.289L0 30.362v-4.726l.078-.871zm36.025 15.523c-2.124-1.735-4.239-3.48-6.357-5.223l-7.802-6.42c-.068-.056-.142-.103-.207-.16-.113-.097-.132-.206-.008-.306 1.018-.823 2.037-1.643 3.054-2.467 1.746-1.415 3.49-2.831 5.235-4.248 2.072-1.683 4.141-3.37 6.218-5.047.531-.43.923-.957 1.093-1.61.107-.413.153-.84.068-1.292-.187-1.003-.711-1.739-1.594-2.205a3.144 3.144 0 0 0-1.911-.335c-.927.117-1.578.68-2.253 1.23l-8.129 6.603c-2.863 2.323-5.724 4.65-8.591 6.968-.553.446-.976.975-1.174 1.662-.163.57-.145 1.14.019 1.717.25.884.87 1.464 1.548 2.018 1.883 1.535 3.755 3.084 5.632 4.627 3.078 2.533 6.156 5.066 9.235 7.597.752.62 1.501 1.243 2.267 1.845a2.799 2.799 0 0 0 1.953.6c1.255-.085 2.196-.698 2.713-1.87.166-.376.267-.782.248-1.208-.047-1.014-.467-1.831-1.257-2.476z"/></g><path fill="#004389" d="M.078 24.765c.06-.15.089-.306.097-.468.02-.422.115-.833.193-1.247.042-.228.08-.456.126-.683.123-.618.283-1.224.44-1.832.143-.554.312-1.098.495-1.637.185-.544.4-1.08.617-1.616.37-.91.807-1.784 1.264-2.649.356-.672.749-1.324 1.167-1.96A28.68 28.68 0 0 1 8.33 7.978a28.294 28.294 0 0 1 3.995-3.27 28.444 28.444 0 0 1 3.187-1.856 28.036 28.036 0 0 1 2.15-.967 28.35 28.35 0 0 1 1.71-.609c.577-.19 1.16-.358 1.745-.509.403-.103.816-.186 1.226-.273.51-.109 1.03-.164 1.538-.285.276-.067.573.013.838-.125L25.55 0h5.6c.013.13.132.115.203.125.381.056.764.09 1.144.156.527.093 1.052.19 1.575.308.352.08.704.162 1.054.251.363.093.723.197 1.081.308.365.114.726.24 1.089.357.446.144.884.313 1.316.492.552.23 1.1.473 1.637.738a30.293 30.293 0 0 1 3.274 1.877C45.52 5.93 47.3 7.497 48.905 9.265c.871.96 1.666 1.983 2.389 3.057a29.02 29.02 0 0 1 1.829 3.136c.407.809.774 1.635 1.099 2.478.228.59.429 1.194.615 1.801.14.457.28.914.393 1.375.15.61.277 1.227.392 1.846.125.672.19 1.352.312 2.023.055.3.066.608.065.915v4.156c-.001.482-.044.959-.145 1.433-.062.29-.08.59-.119.883-.089.677-.23 1.344-.382 2.006a26.683 26.683 0 0 1-.514 1.88c-.218.704-.456 1.4-.725 2.084a27.11 27.11 0 0 1-1.138 2.486 27.749 27.749 0 0 1-2.463 3.946 28.345 28.345 0 0 1-4.128 4.434 27.896 27.896 0 0 1-3.941 2.864 27.762 27.762 0 0 1-3.175 1.647 28.03 28.03 0 0 1-1.824.733c-.514.184-1.038.347-1.564.502a25.8 25.8 0 0 1-1.484.395c-.456.105-.921.188-1.382.28-.656.129-1.323.179-1.979.305-.314.06-.637.07-.958.07-1.327-.002-2.654-.001-3.98-.001-.534 0-1.062-.034-1.586-.15-.281-.061-.575-.075-.862-.112a19.149 19.149 0 0 1-1.519-.273 27.923 27.923 0 0 1-1.575-.393c-.55-.15-1.093-.32-1.635-.493a17.56 17.56 0 0 1-1.518-.568 34.635 34.635 0 0 1-2.063-.957 28.017 28.017 0 0 1-3.972-2.447 28.27 28.27 0 0 1-4.589-4.244 28.021 28.021 0 0 1-2.074-2.693 28.506 28.506 0 0 1-3.147-6.203 26.178 26.178 0 0 1-.615-1.96c-.141-.524-.27-1.05-.398-1.575-.113-.464-.16-.943-.26-1.41-.093-.427-.071-.87-.207-1.289L0 30.362v-4.726l.078-.871zm36.025 15.523c-2.124-1.735-4.239-3.48-6.357-5.223l-7.802-6.42c-.068-.056-.142-.103-.207-.16-.113-.097-.132-.206-.008-.306 1.018-.823 2.037-1.643 3.054-2.467 1.746-1.415 3.49-2.831 5.235-4.248 2.072-1.683 4.141-3.37 6.218-5.047.531-.43.923-.957 1.093-1.61.107-.413.153-.84.068-1.292-.187-1.003-.711-1.739-1.594-2.205a3.144 3.144 0 0 0-1.911-.335c-.927.117-1.578.68-2.253 1.23l-8.129 6.603c-2.863 2.323-5.724 4.65-8.591 6.968-.553.446-.976.975-1.174 1.662-.163.57-.145 1.14.019 1.717.25.884.87 1.464 1.548 2.018 1.883 1.535 3.755 3.084 5.632 4.627 3.078 2.533 6.156 5.066 9.235 7.597.752.62 1.501 1.243 2.267 1.845a2.799 2.799 0 0 0 1.953.6c1.255-.085 2.196-.698 2.713-1.87.166-.376.267-.782.248-1.208-.047-1.014-.467-1.831-1.257-2.476z"/></g></g></svg>