<svg xmlns="http://www.w3.org/2000/svg" width="32" height="23" viewBox="0 0 32 23"><g><g><path fill="#004389" d="M26.363 4.784a.989.989 0 0 1 1.405.09 1.012 1.012 0 0 1-.089 1.42l-11.02 9.804a.988.988 0 0 1-1.316 0L4.32 6.293a1.012 1.012 0 0 1-.089-1.419.988.988 0 0 1 1.405-.09L16 14.004zm2.65-4.27c1.646 0 2.986 1.352 2.986 3.015v15.95c0 1.662-1.34 3.014-2.987 3.014H2.987C1.34 22.493 0 21.141 0 19.478V3.53C0 1.865 1.34.514 2.987.514zm.995 3.015c0-.554-.447-1.005-.996-1.005H2.987c-.55 0-.996.45-.996 1.005v15.95c0 .553.447 1.003.996 1.003h26.025c.55 0 .996-.45.996-1.004z"/></g></g></svg>