<svg xmlns="http://www.w3.org/2000/svg" width="30" height="21" viewBox="0 0 30 21"><g><g><path fill="#e3000f" d="M24.327 4.251a.89.89 0 0 1 1.264.08.91.91 0 0 1-.08 1.277l-9.917 8.826a.89.89 0 0 1-1.185 0L4.488 5.608a.91.91 0 0 1-.08-1.276.89.89 0 0 1 1.265-.08L15 12.548zM26.711.408c1.483 0 2.689 1.217 2.689 2.713v14.354c0 1.496-1.206 2.714-2.689 2.714H3.288C1.806 20.189.6 18.97.6 17.475V3.121C.6 1.624 1.806.408 3.288.408zm.896 2.713a.901.901 0 0 0-.896-.904H3.288a.901.901 0 0 0-.896.904v14.354c0 .498.402.904.896.904h23.423a.901.901 0 0 0 .896-.904z"/></g></g></svg>