<svg xmlns="http://www.w3.org/2000/svg" width="30" height="30" viewBox="0 0 30 30"><g><g><path fill="#004389" d="M14.265 0h1.466c.348.034.696.063 1.042.104a14.854 14.854 0 0 1 7.425 3.05c4.927 3.808 6.985 10.347 5.127 16.291a15.006 15.006 0 0 1-11.41 10.26c-2.796.55-5.54.33-8.208-.68-2.915-1.103-5.264-2.947-7.043-5.504a14.643 14.643 0 0 1-2.573-6.9c-.032-.298-.06-.596-.091-.893v-1.466c.01-.064.025-.13.03-.194.096-1.593.43-3.134 1.029-4.612 1.296-3.198 3.435-5.678 6.41-7.427A14.576 14.576 0 0 1 13.356.092c.303-.033.606-.062.909-.092zm.738 3.277C8.557 3.265 3.297 8.51 3.278 14.969c-.018 6.464 5.219 11.718 11.707 11.745 6.45.026 11.72-5.237 11.733-11.718.012-6.45-5.242-11.706-11.715-11.72zm-2.32 13.089l1.376-1.383c1.936-1.936 3.87-3.874 5.809-5.806.917-.914 2.298-.899 3.143.023a2.14 2.14 0 0 1-.068 2.957c-.575.586-1.16 1.163-1.742 1.744l-6.916 6.914c-.715.713-1.72.861-2.586.38a2.184 2.184 0 0 1-.45-.34c-1.385-1.348-2.773-2.692-4.144-4.055-.647-.643-.818-1.433-.495-2.286.321-.847.976-1.307 1.877-1.372.655-.048 1.215.197 1.68.665.794.799 1.593 1.595 2.389 2.393.042.043.074.096.127.166z"/></g></g></svg>