<svg xmlns="http://www.w3.org/2000/svg" width="22" height="30" viewBox="0 0 22 30"><g><g><path fill="#e3000f" d="M10.997.624c5.956 0 10.802 4.916 10.802 10.96 0 3.894-1.173 5.464-6.807 13.004-.971 1.3-2.073 2.774-3.33 4.477a.827.827 0 0 1-1.33 0 1030.236 1030.236 0 0 0-3.347-4.497C1.365 17.05.195 15.485.195 11.583.194 5.54 5.04.623 10.996.623zm2.67 22.946c5.482-7.337 6.47-8.658 6.47-11.987 0-5.113-4.1-9.274-9.14-9.274-5.04 0-9.14 4.16-9.14 9.274 0 3.336.985 4.653 6.452 11.967.802 1.073 1.693 2.263 2.687 3.605a989.69 989.69 0 0 1 2.672-3.585zm-2.67-17.888c3.207 0 5.816 2.648 5.816 5.901 0 3.255-2.61 5.903-5.816 5.903-3.208 0-5.817-2.648-5.817-5.903 0-3.253 2.61-5.9 5.817-5.9zm0 10.117c2.29 0 4.154-1.89 4.154-4.216 0-2.324-1.863-4.214-4.154-4.214s-4.155 1.89-4.155 4.214c0 2.325 1.864 4.216 4.155 4.216z"/></g></g></svg>