<svg xmlns="http://www.w3.org/2000/svg" width="57" height="57" viewBox="0 0 57 57"><defs><mask id="8e9mb" width="2" height="2" x="-1" y="-1"><path fill="#fff" d="M0 0h56v56H0z"/><path d="M56 25.636v4.725l-.078.871c-.136.42-.114.862-.207 1.289-.1.467-.148.946-.26 1.41-.129.525-.257 1.052-.399 1.574a26.013 26.013 0 0 1-1.563 4.263 28.48 28.48 0 0 1-2.198 3.901c-.634.94-1.33 1.834-2.074 2.693a28.322 28.322 0 0 1-4.59 4.245 28.062 28.062 0 0 1-3.971 2.446c-.677.344-1.366.66-2.063.956-.497.212-1.004.405-1.519.569a41.58 41.58 0 0 1-1.634.494c-.523.142-1.048.28-1.575.392a19.41 19.41 0 0 1-1.519.273c-.287.038-.581.05-.862.113a7.325 7.325 0 0 1-1.585.149h-3.981a5.06 5.06 0 0 1-.959-.07c-.656-.125-1.322-.174-1.979-.305-.46-.091-.925-.175-1.381-.278a25.364 25.364 0 0 1-1.485-.396 29.484 29.484 0 0 1-1.564-.502c-.616-.22-1.222-.47-1.824-.733a27.758 27.758 0 0 1-3.174-1.647 28.352 28.352 0 0 1-8.07-7.298 27.722 27.722 0 0 1-2.462-3.945 27.145 27.145 0 0 1-1.138-2.487 29.714 29.714 0 0 1-.725-2.084 26.758 26.758 0 0 1-.514-1.88 21.258 21.258 0 0 1-.382-2.006c-.039-.294-.058-.594-.12-.883-.1-.474-.143-.95-.144-1.433v-4.156c0-.307.01-.614.064-.915.123-.671.188-1.35.313-2.023.115-.619.242-1.237.392-1.846.113-.46.253-.919.393-1.375.186-.607.387-1.21.615-1.801.325-.843.692-1.669 1.099-2.478a28.96 28.96 0 0 1 1.829-3.135 26.8 26.8 0 0 1 2.389-3.058C8.7 7.497 10.48 5.93 12.476 4.612a30.203 30.203 0 0 1 3.274-1.878 27.715 27.715 0 0 1 1.638-.737c.432-.18.87-.348 1.316-.493.363-.118.723-.243 1.088-.356.359-.112.719-.216 1.082-.309a33.504 33.504 0 0 1 2.629-.56c.38-.065.763-.1 1.143-.155.072-.01.191.004.204-.125h5.6l.83.085c.265.138.562.058.837.125.508.122 1.028.176 1.539.285.41.087.822.17 1.226.274.585.15 1.168.318 1.744.508.575.19 1.15.383 1.71.608a28.25 28.25 0 0 1 2.15.968 28.445 28.445 0 0 1 3.188 1.857 28.295 28.295 0 0 1 3.995 3.269 28.68 28.68 0 0 1 3.854 4.695c.418.636.81 1.288 1.166 1.96.458.865.895 1.74 1.264 2.649.217.535.432 1.071.618 1.616.182.539.352 1.083.495 1.637.157.608.316 1.214.44 1.831.045.228.083.456.126.684.078.414.172.825.193 1.247.008.162.037.318.097.468l.078.871zM18.64 42.764c-.02.425.082.833.248 1.208.517 1.172 1.457 1.785 2.713 1.87a2.801 2.801 0 0 0 1.953-.6c.765-.602 1.514-1.226 2.267-1.845 3.079-2.531 6.157-5.064 9.235-7.597 1.876-1.543 3.749-3.092 5.631-4.627.68-.554 1.298-1.134 1.549-2.018.163-.577.182-1.147.018-1.717-.197-.687-.62-1.215-1.173-1.662-2.868-2.318-5.729-4.644-8.591-6.968l-8.13-6.603c-.675-.55-1.325-1.113-2.252-1.23a3.145 3.145 0 0 0-1.911.335c-.883.466-1.408 1.202-1.595 2.205-.084.452-.038.88.069 1.292.17.653.561 1.18 1.093 1.61 2.077 1.677 4.145 3.364 6.217 5.047 1.745 1.417 3.49 2.834 5.235 4.249 1.017.823 2.037 1.643 3.054 2.467.124.1.106.208-.007.306-.066.057-.14.103-.207.159l-7.803 6.42c-2.118 1.742-4.232 3.488-6.356 5.223-.79.646-1.21 1.463-1.257 2.476z"/></mask><filter id="8e9ma" width="78.5" height="78.9" x="-11" y="-11" filterUnits="userSpaceOnUse"><feOffset dx=".5" dy=".9" in="SourceGraphic" result="FeOffset1050Out"/><feGaussianBlur in="FeOffset1050Out" result="FeGaussianBlur1051Out" stdDeviation="0.4 0.4"/></filter></defs><g><g><g filter="url(#8e9ma)"><path fill="none" d="M56 25.636v4.725l-.078.871c-.136.42-.114.862-.207 1.289-.1.467-.148.946-.26 1.41-.129.525-.257 1.052-.399 1.574a26.013 26.013 0 0 1-1.563 4.263 28.48 28.48 0 0 1-2.198 3.901c-.634.94-1.33 1.834-2.074 2.693a28.322 28.322 0 0 1-4.59 4.245 28.062 28.062 0 0 1-3.971 2.446c-.677.344-1.366.66-2.063.956-.497.212-1.004.405-1.519.569a41.58 41.58 0 0 1-1.634.494c-.523.142-1.048.28-1.575.392a19.41 19.41 0 0 1-1.519.273c-.287.038-.581.05-.862.113a7.325 7.325 0 0 1-1.585.149h-3.981a5.06 5.06 0 0 1-.959-.07c-.656-.125-1.322-.174-1.979-.305-.46-.091-.925-.175-1.381-.278a25.364 25.364 0 0 1-1.485-.396 29.484 29.484 0 0 1-1.564-.502c-.616-.22-1.222-.47-1.824-.733a27.758 27.758 0 0 1-3.174-1.647 28.352 28.352 0 0 1-8.07-7.298 27.722 27.722 0 0 1-2.462-3.945 27.145 27.145 0 0 1-1.138-2.487 29.714 29.714 0 0 1-.725-2.084 26.758 26.758 0 0 1-.514-1.88 21.258 21.258 0 0 1-.382-2.006c-.039-.294-.058-.594-.12-.883-.1-.474-.143-.95-.144-1.433v-4.156c0-.307.01-.614.064-.915.123-.671.188-1.35.313-2.023.115-.619.242-1.237.392-1.846.113-.46.253-.919.393-1.375.186-.607.387-1.21.615-1.801.325-.843.692-1.669 1.099-2.478a28.96 28.96 0 0 1 1.829-3.135 26.8 26.8 0 0 1 2.389-3.058C8.7 7.497 10.48 5.93 12.476 4.612a30.203 30.203 0 0 1 3.274-1.878 27.715 27.715 0 0 1 1.638-.737c.432-.18.87-.348 1.316-.493.363-.118.723-.243 1.088-.356.359-.112.719-.216 1.082-.309a33.504 33.504 0 0 1 2.629-.56c.38-.065.763-.1 1.143-.155.072-.01.191.004.204-.125h5.6l.83.085c.265.138.562.058.837.125.508.122 1.028.176 1.539.285.41.087.822.17 1.226.274.585.15 1.168.318 1.744.508.575.19 1.15.383 1.71.608a28.25 28.25 0 0 1 2.15.968 28.445 28.445 0 0 1 3.188 1.857 28.295 28.295 0 0 1 3.995 3.269 28.68 28.68 0 0 1 3.854 4.695c.418.636.81 1.288 1.166 1.96.458.865.895 1.74 1.264 2.649.217.535.432 1.071.618 1.616.182.539.352 1.083.495 1.637.157.608.316 1.214.44 1.831.045.228.083.456.126.684.078.414.172.825.193 1.247.008.162.037.318.097.468l.078.871zM18.64 42.764c-.02.425.082.833.248 1.208.517 1.172 1.457 1.785 2.713 1.87a2.801 2.801 0 0 0 1.953-.6c.765-.602 1.514-1.226 2.267-1.845 3.079-2.531 6.157-5.064 9.235-7.597 1.876-1.543 3.749-3.092 5.631-4.627.68-.554 1.298-1.134 1.549-2.018.163-.577.182-1.147.018-1.717-.197-.687-.62-1.215-1.173-1.662-2.868-2.318-5.729-4.644-8.591-6.968l-8.13-6.603c-.675-.55-1.325-1.113-2.252-1.23a3.145 3.145 0 0 0-1.911.335c-.883.466-1.408 1.202-1.595 2.205-.084.452-.038.88.069 1.292.17.653.561 1.18 1.093 1.61 2.077 1.677 4.145 3.364 6.217 5.047 1.745 1.417 3.49 2.834 5.235 4.249 1.017.823 2.037 1.643 3.054 2.467.124.1.106.208-.007.306-.066.057-.14.103-.207.159l-7.803 6.42c-2.118 1.742-4.232 3.488-6.356 5.223-.79.646-1.21 1.463-1.257 2.476z" mask="url(&quot;#8e9mb&quot;)"/><path fill-opacity=".75" d="M56 25.636v4.725l-.078.871c-.136.42-.114.862-.207 1.289-.1.467-.148.946-.26 1.41-.129.525-.257 1.052-.399 1.574a26.013 26.013 0 0 1-1.563 4.263 28.48 28.48 0 0 1-2.198 3.901c-.634.94-1.33 1.834-2.074 2.693a28.322 28.322 0 0 1-4.59 4.245 28.062 28.062 0 0 1-3.971 2.446c-.677.344-1.366.66-2.063.956-.497.212-1.004.405-1.519.569a41.58 41.58 0 0 1-1.634.494c-.523.142-1.048.28-1.575.392a19.41 19.41 0 0 1-1.519.273c-.287.038-.581.05-.862.113a7.325 7.325 0 0 1-1.585.149h-3.981a5.06 5.06 0 0 1-.959-.07c-.656-.125-1.322-.174-1.979-.305-.46-.091-.925-.175-1.381-.278a25.364 25.364 0 0 1-1.485-.396 29.484 29.484 0 0 1-1.564-.502c-.616-.22-1.222-.47-1.824-.733a27.758 27.758 0 0 1-3.174-1.647 28.352 28.352 0 0 1-8.07-7.298 27.722 27.722 0 0 1-2.462-3.945 27.145 27.145 0 0 1-1.138-2.487 29.714 29.714 0 0 1-.725-2.084 26.758 26.758 0 0 1-.514-1.88 21.258 21.258 0 0 1-.382-2.006c-.039-.294-.058-.594-.12-.883-.1-.474-.143-.95-.144-1.433v-4.156c0-.307.01-.614.064-.915.123-.671.188-1.35.313-2.023.115-.619.242-1.237.392-1.846.113-.46.253-.919.393-1.375.186-.607.387-1.21.615-1.801.325-.843.692-1.669 1.099-2.478a28.96 28.96 0 0 1 1.829-3.135 26.8 26.8 0 0 1 2.389-3.058C8.7 7.497 10.48 5.93 12.476 4.612a30.203 30.203 0 0 1 3.274-1.878 27.715 27.715 0 0 1 1.638-.737c.432-.18.87-.348 1.316-.493.363-.118.723-.243 1.088-.356.359-.112.719-.216 1.082-.309a33.504 33.504 0 0 1 2.629-.56c.38-.065.763-.1 1.143-.155.072-.01.191.004.204-.125h5.6l.83.085c.265.138.562.058.837.125.508.122 1.028.176 1.539.285.41.087.822.17 1.226.274.585.15 1.168.318 1.744.508.575.19 1.15.383 1.71.608a28.25 28.25 0 0 1 2.15.968 28.445 28.445 0 0 1 3.188 1.857 28.295 28.295 0 0 1 3.995 3.269 28.68 28.68 0 0 1 3.854 4.695c.418.636.81 1.288 1.166 1.96.458.865.895 1.74 1.264 2.649.217.535.432 1.071.618 1.616.182.539.352 1.083.495 1.637.157.608.316 1.214.44 1.831.045.228.083.456.126.684.078.414.172.825.193 1.247.008.162.037.318.097.468l.078.871zM18.64 42.764c-.02.425.082.833.248 1.208.517 1.172 1.457 1.785 2.713 1.87a2.801 2.801 0 0 0 1.953-.6c.765-.602 1.514-1.226 2.267-1.845 3.079-2.531 6.157-5.064 9.235-7.597 1.876-1.543 3.749-3.092 5.631-4.627.68-.554 1.298-1.134 1.549-2.018.163-.577.182-1.147.018-1.717-.197-.687-.62-1.215-1.173-1.662-2.868-2.318-5.729-4.644-8.591-6.968l-8.13-6.603c-.675-.55-1.325-1.113-2.252-1.23a3.145 3.145 0 0 0-1.911.335c-.883.466-1.408 1.202-1.595 2.205-.084.452-.038.88.069 1.292.17.653.561 1.18 1.093 1.61 2.077 1.677 4.145 3.364 6.217 5.047 1.745 1.417 3.49 2.834 5.235 4.249 1.017.823 2.037 1.643 3.054 2.467.124.1.106.208-.007.306-.066.057-.14.103-.207.159l-7.803 6.42c-2.118 1.742-4.232 3.488-6.356 5.223-.79.646-1.21 1.463-1.257 2.476z"/></g><path fill="#004389" d="M56 25.636v4.725l-.078.871c-.136.42-.114.862-.207 1.289-.1.467-.148.946-.26 1.41-.129.525-.257 1.052-.399 1.574a26.013 26.013 0 0 1-1.563 4.263 28.48 28.48 0 0 1-2.198 3.901c-.634.94-1.33 1.834-2.074 2.693a28.322 28.322 0 0 1-4.59 4.245 28.062 28.062 0 0 1-3.971 2.446c-.677.344-1.366.66-2.063.956-.497.212-1.004.405-1.519.569a41.58 41.58 0 0 1-1.634.494c-.523.142-1.048.28-1.575.392a19.41 19.41 0 0 1-1.519.273c-.287.038-.581.05-.862.113a7.325 7.325 0 0 1-1.585.149h-3.981a5.06 5.06 0 0 1-.959-.07c-.656-.125-1.322-.174-1.979-.305-.46-.091-.925-.175-1.381-.278a25.364 25.364 0 0 1-1.485-.396 29.484 29.484 0 0 1-1.564-.502c-.616-.22-1.222-.47-1.824-.733a27.758 27.758 0 0 1-3.174-1.647 28.352 28.352 0 0 1-8.07-7.298 27.722 27.722 0 0 1-2.462-3.945 27.145 27.145 0 0 1-1.138-2.487 29.714 29.714 0 0 1-.725-2.084 26.758 26.758 0 0 1-.514-1.88 21.258 21.258 0 0 1-.382-2.006c-.039-.294-.058-.594-.12-.883-.1-.474-.143-.95-.144-1.433v-4.156c0-.307.01-.614.064-.915.123-.671.188-1.35.313-2.023.115-.619.242-1.237.392-1.846.113-.46.253-.919.393-1.375.186-.607.387-1.21.615-1.801.325-.843.692-1.669 1.099-2.478a28.96 28.96 0 0 1 1.829-3.135 26.8 26.8 0 0 1 2.389-3.058C8.7 7.497 10.48 5.93 12.476 4.612a30.203 30.203 0 0 1 3.274-1.878 27.715 27.715 0 0 1 1.638-.737c.432-.18.87-.348 1.316-.493.363-.118.723-.243 1.088-.356.359-.112.719-.216 1.082-.309a33.504 33.504 0 0 1 2.629-.56c.38-.065.763-.1 1.143-.155.072-.01.191.004.204-.125h5.6l.83.085c.265.138.562.058.837.125.508.122 1.028.176 1.539.285.41.087.822.17 1.226.274.585.15 1.168.318 1.744.508.575.19 1.15.383 1.71.608a28.25 28.25 0 0 1 2.15.968 28.445 28.445 0 0 1 3.188 1.857 28.295 28.295 0 0 1 3.995 3.269 28.68 28.68 0 0 1 3.854 4.695c.418.636.81 1.288 1.166 1.96.458.865.895 1.74 1.264 2.649.217.535.432 1.071.618 1.616.182.539.352 1.083.495 1.637.157.608.316 1.214.44 1.831.045.228.083.456.126.684.078.414.172.825.193 1.247.008.162.037.318.097.468l.078.871zM18.64 42.764c-.02.425.082.833.248 1.208.517 1.172 1.457 1.785 2.713 1.87a2.801 2.801 0 0 0 1.953-.6c.765-.602 1.514-1.226 2.267-1.845 3.079-2.531 6.157-5.064 9.235-7.597 1.876-1.543 3.749-3.092 5.631-4.627.68-.554 1.298-1.134 1.549-2.018.163-.577.182-1.147.018-1.717-.197-.687-.62-1.215-1.173-1.662-2.868-2.318-5.729-4.644-8.591-6.968l-8.13-6.603c-.675-.55-1.325-1.113-2.252-1.23a3.145 3.145 0 0 0-1.911.335c-.883.466-1.408 1.202-1.595 2.205-.084.452-.038.88.069 1.292.17.653.561 1.18 1.093 1.61 2.077 1.677 4.145 3.364 6.217 5.047 1.745 1.417 3.49 2.834 5.235 4.249 1.017.823 2.037 1.643 3.054 2.467.124.1.106.208-.007.306-.066.057-.14.103-.207.159l-7.803 6.42c-2.118 1.742-4.232 3.488-6.356 5.223-.79.646-1.21 1.463-1.257 2.476z"/></g></g></svg>