<svg xmlns="http://www.w3.org/2000/svg" width="67" height="55" viewBox="0 0 67 55"><g><g><path fill="#004389" d="M67 40.82c-.038.602-.054 1.207-.117 1.807-.165 1.542-1.583 2.873-3.132 2.92-2.095.065-4.191.1-6.287.148-.09.002-.181 0-.359 0l5.107 9.244-.062.06c-.121-.069-.245-.132-.362-.206-4.71-2.956-9.417-5.916-14.132-8.862a1.513 1.513 0 0 0-.758-.224c-6.015-.048-12.031-.082-18.047-.117-.421-.003-.843-.014-1.264-.015-1.484-.003-3.098-1.433-3.178-2.934-.087-1.618-.06-3.243-.08-4.866-.005-.431 0-.863 0-1.333h4.446v4.575h33.627v-24.26H51.715v-4.611h.388c3.954.024 7.907.028 11.86.087.743.012 1.393.464 1.894.991.423.446.715 1.02 1.048 1.549.059.094.04.243.04.367.008 1.28.01 2.56.018 3.841.002.215.024.43.037.645V40.82zM9.719 33.41c-1.413 0-2.825.008-4.237-.003-.752-.006-1.503-.052-2.255-.067-.892-.02-1.552-.482-2.196-1.047-.843-.738-.93-1.715-.959-2.716A144.994 144.994 0 0 1 0 25.225C.012 17.783.031 10.342.072 2.9c.002-.323.211-.66.372-.964C.87 1.127 1.517.549 2.39.262c.32-.105.665-.184 1-.187C7.205.04 11.022.005 14.84.002c10.244-.007 20.488 0 30.732.013.281 0 .602.06.836.204.518.32 1.03.67 1.476 1.084.545.508.794 1.173.8 1.938.03 4.286.086 8.572.11 12.858.02 3.532.027 7.064.002 10.596-.01 1.357-.111 2.715-.19 4.072-.03.532-.257.988-.666 1.344-.103.09-.206.183-.29.29-.482.618-1.146.845-1.89.873-1.537.057-3.074.136-4.61.14-7.02.02-14.039.014-21.058.03-.244 0-.518.082-.726.211-4.688 2.926-9.37 5.864-14.052 8.798-.162.102-.328.196-.492.293a9.278 9.278 0 0 0-.09-.063l5.023-9.143-.036-.129zm14.688-12.375c2.483-.018 4.233-1.89 4.34-4.37.082-1.88-1.809-4.339-4.414-4.306-2.426.03-4.295 2.158-4.292 4.413.003 1.934 1.787 4.42 4.366 4.263zm10.583-.026c2.453.2 4.38-1.998 4.388-4.258a4.353 4.353 0 0 0-4.345-4.394c-2.356-.014-4.31 1.958-4.359 4.326-.042 2.056 1.754 4.531 4.316 4.326zm-21.196 0c2.304.22 4.328-2.017 4.319-4.26a4.403 4.403 0 0 0-4.41-4.39c-2.462-.004-4.267 1.931-4.274 4.583-.006 2.196 1.997 4.063 4.365 4.067z"/></g></g></svg>