<svg xmlns="http://www.w3.org/2000/svg" width="86" height="31" viewBox="0 0 86 31"><g><g><path fill="#848484" d="M76 15.999c0 1.5-5.715 10.798-5.327 10.373-.386.385-1.713 1.787-1.637 2.366.074.563.378 1.982.926 2.169.536.182 1.044.095 1.459-.311.719-.704 1.427-1.419 2.14-2.129l11.898-11.86c.725-.724.718-1.502-.014-2.232C80.875 9.819 76.31 5.26 71.73.714c-.283-.281-.641-.562-1.014-.664-.625-.17-1.165.09-1.502.667-.338.578-.245 2.189.292 2.727C71.35 5.3 76 14.5 76 16z"/></g><g><path fill="#848484" d="M67.5 14.7a1.8 1.8 0 1 1 0 3.6 1.8 1.8 0 0 1 0-3.6z"/></g><g><path fill="#848484" d="M43.5 14.7a1.8 1.8 0 1 1 0 3.6 1.8 1.8 0 0 1 0-3.6z"/></g><g><path fill="#848484" d="M37.5 14.7a1.8 1.8 0 1 1 0 3.6 1.8 1.8 0 0 1 0-3.6z"/></g><g><path fill="#848484" d="M31.5 14.7a1.8 1.8 0 1 1 0 3.6 1.8 1.8 0 0 1 0-3.6z"/></g><g><path fill="#848484" d="M26.5 14.7a1.8 1.8 0 1 1 0 3.6 1.8 1.8 0 0 1 0-3.6z"/></g><g><path fill="#848484" d="M20.5 14.7a1.8 1.8 0 1 1 0 3.6 1.8 1.8 0 0 1 0-3.6z"/></g><g><path fill="#848484" d="M14.5 14.7a1.8 1.8 0 1 1 0 3.6 1.8 1.8 0 0 1 0-3.6z"/></g><g><path fill="#848484" d="M8.5 14.7a1.8 1.8 0 1 1 0 3.6 1.8 1.8 0 0 1 0-3.6z"/></g><g><path fill="#848484" d="M2.5 14.7a1.8 1.8 0 1 1 0 3.6 1.8 1.8 0 0 1 0-3.6z"/></g></g></svg>