<svg xmlns="http://www.w3.org/2000/svg" width="57" height="57" viewBox="0 0 57 57"><g><g><path fill="#004389" d="M56.662 53.548l-3.18 3.123a1.171 1.171 0 0 1-1.632 0L38.2 43.263a1.087 1.087 0 0 1-.061-1.501c.124-.143.261-.3.412-.471-.957-.875-1.856-1.767-2.85-2.548-.188-.148-.814.049-1.122.252-3.377 2.22-7.089 3.477-11.157 3.682-7.099.359-13.11-2-17.841-7.13-6.909-7.49-7.431-18.515-1.408-26.665C12.004-1.718 28.04-3.055 37.54 6.1c8.308 8.004 8.818 20.699 1.141 29.294-.562.63-.49.962.07 1.487.723.677 1.357 1.445 2.087 2.236l.588-.509a1.172 1.172 0 0 1 1.575.047L56.66 51.982c.444.433.446 1.132.003 1.566zM21.984 39.303c10.413.023 18.638-7.897 18.672-17.98.032-9.796-8.314-17.941-18.446-17.956-10.392-.014-18.631 7.814-18.7 17.895-.07 10.601 8.887 18.234 18.474 18.04zm6.02-18.702c0-3.253.023-6.505-.016-9.758-.01-.805.181-1.126 1.09-1.122 3.078.014 3.078-.02 3.078 2.944 0 5.827-.031 11.656.027 17.482.01 1.07-.329 1.387-1.364 1.27-.62-.072-1.257-.051-1.882-.004-.756.056-.952-.268-.946-.953.025-3.286.011-6.574.012-9.86zM21.86 31.402c-.02-.406-.043-.67-.043-.936-.003-5.285.013-10.572-.02-15.858-.006-.787.212-1.05 1.046-1.062 3.22-.043 3.219-.07 3.219 3.024 0 4.574-.023 9.15.023 13.723.009.9-.248 1.206-1.181 1.127-.965-.081-1.943-.018-3.044-.018zm-6.093.006v-1.155c0-4.132.022-8.264-.015-12.397-.008-.839.146-1.282 1.134-1.17.987.112 2.308-.22 2.882.284.504.444.21 1.777.213 2.718.015 3.456.007 6.91.007 10.365 0 1.357-.002 1.357-1.447 1.355h-2.774zM9.75 20.278c1.251 0 2.361-.034 3.465.029.214.011.58.393.583.607.036 3.282.037 6.564-.007 9.845-.003.218-.42.593-.67.615-.864.077-1.746.086-2.608-.002-.276-.028-.727-.438-.73-.679-.048-3.413-.033-6.83-.033-10.415z"/></g></g></svg>