<svg xmlns="http://www.w3.org/2000/svg" width="29" height="56" viewBox="0 0 29 56"><g><g><path fill="#004389" d="M14.372 20.452c-.9.593-1.613 1.156-2.406 1.557-.825.418-1.717.715-2.601.992-.363.114-.821.15-1.169.027-.683-.243-1.102.056-1.623.433-.662.477-1.403.9-2.17 1.156-1.464.489-2.82-.084-3.48-1.489-.41-.873-.62-1.847-.887-2.785-.124-.437.081-.804.367-1.142 2.443-2.892 4.873-5.794 7.322-8.682.299-.352.443-.696.439-1.17-.02-2.624-.01-5.247-.01-7.872.001-.182-.005-.365.014-.546.048-.433.248-.762.682-.888.434-.127.785.039 1.038.391.464.649.909 1.311 1.362 1.968l2.104 3.05c.756-1.527 1.483-2.985 2.2-4.448.557-1.135.953-1.262 2.021-.622 3.508 2.102 6.347 4.861 8.252 8.558.197.383.156.579-.136.869-1.427 1.414-2.83 2.852-4.237 4.285-.151.153-.31.314-.41.502-.207.392-.162.787.157 1.1.316.31.697.37 1.087.135.152-.092.286-.22.412-.348 1.224-1.233 2.446-2.468 3.664-3.706.137-.14.25-.305.374-.458l.175.042c.279 1.04.574 2.077.82 3.126.034.148-.137.392-.273.53-2.355 2.406-4.72 4.801-7.08 7.2-.165.168-.333.338-.462.532-.266.403-.212.809.112 1.145.324.335.724.396 1.127.14.18-.115.335-.273.487-.427 2.048-2.072 4.093-4.148 6.14-6.221.098-.099.205-.188.409-.374.04 1.025.096 1.942.097 2.858 0 .176-.185.376-.328.522-2.536 2.583-5.08 5.159-7.62 7.737-.151.154-.315.306-.427.489-.247.403-.213.814.116 1.15.325.333.724.4 1.128.137.18-.116.335-.274.487-.428 2.01-2.034 4.017-4.07 6.025-6.106.137-.14.281-.272.539-.37-.186 1.153-.36 2.307-.57 3.456-.03.171-.205.331-.34.47-2.322 2.361-4.648 4.719-6.971 7.08-.14.14-.287.28-.394.446-.27.418-.252.843.107 1.191.354.342.784.38 1.177.077.312-.24.581-.54.86-.823 1.452-1.467 2.899-2.938 4.349-4.405.096-.097.206-.182.265-.233l-1.865 13.354H4.298c-.077-.912-.19-1.813-.225-2.718-.11-2.85.16-5.645 1.371-8.267.829-1.795 2.008-3.27 3.674-4.392 2.156-1.452 3.956-3.274 4.828-5.837.198-.584.269-1.211.426-1.948zm11.391 29.846c.98-.054 1.849.184 2.498.941.763.888.947 1.922.499 3.003-.469 1.13-1.365 1.728-2.575 1.74-2.533.023-5.067.012-7.6.012-4.888 0-9.776 0-14.663-.006-1.54-.002-2.663-.887-2.937-2.284-.33-1.682.833-3.25 2.52-3.394.213-.018.427-.021.514-.025-.082-.793-.292-1.585-.217-2.349.188-1.94 1.711-3.284 3.65-3.325 1.328-.028 2.658-.007 3.988-.007 3.648.002 7.296-.016 10.943.014 2.363.019 4.027 1.93 3.753 4.27-.054.46-.235.904-.373 1.41z"/></g></g></svg>