<svg xmlns="http://www.w3.org/2000/svg" width="84" height="53" viewBox="0 0 84 53"><g><g><path fill="#004389" d="M15.497-.001c1.97 1.134 3.941 2.266 5.91 3.402.174.102.338.225.498.35.603.473.74 1.18.35 1.841-.278.473-.57.937-.855 1.406-.015.026-.016.059-.035.138 1.64 1.017 3.25 2.105 5.24 2.394 1.63.237 3.253.538 4.88.798.136.022.34-.009.425-.098 1.627-1.714 3.81-1.967 5.947-2.243 3.74-.484 7.51-.704 11.267-.33 2.127.211 4.222.75 6.33 1.141 1.438.268 2.872.597 4.349.38.384-.055.77-.123 1.143-.23.322-.091.493-.016.668.286 3.156 5.47 6.325 10.934 9.49 16.4.386.665.76 1.336 1.159 1.992.143.235.122.38-.088.553-1.312 1.08-2.617 2.17-3.924 3.256-.07.059-.141.117-.238.195.155.236.3.455.442.675 1.905 2.955.32 6.711-3.111 7.36-.382.072-.77.11-1.157.15-.318.032-.496.18-.58.506-.665 2.542-2.06 3.763-4.672 4.087-.393.048-.659.156-.758.603-.471 2.117-1.798 3.668-4.353 3.924-.263.027-.53.03-.788.08-.201.039-.429.087-.58.211a9.14 9.14 0 0 0-1.018.969c-1.976 2.211-4.436 2.851-7.283 2.402-2.548-.4-5.002-1.136-7.43-1.977-.365-.127-.57-.069-.775.243-.18.275-.42.506-.614.772-.836 1.154-1.992 1.488-3.335 1.328-1.352-.16-2.566-1.571-2.588-3.039-.008-.543.074-1.088.123-1.733-.253.224-.46.418-.679.598-1.013.83-2.127 1.196-3.378.615-1.277-.593-2.006-1.615-2.084-3.05-.023-.414.07-.836.12-1.347-1.636 1.014-3.254 1.2-4.622-.269-1.319-1.416-1.156-3.047-.163-4.767-.29.08-.442.127-.597.163-1.779.417-2.747.084-3.79-1.266-.91-1.175-.863-2.81.08-4.028.295-.382.292-.638.043-1.017-.86-1.306-1.605-2.699-2.563-3.923-.661-.844-1.604-1.462-2.47-2.226-.258.46-.441.838-.67 1.185-.292.443-.583.896-.942 1.28-.4.43-.775.469-1.262.182A403.9 403.9 0 0 1 .66 26.786c-.272-.166-.443-.501-.661-.759v-.377c.037-.047.082-.09.111-.142 1.172-2.111 2.312-4.24 3.517-6.33 3.516-6.092 7.06-12.17 10.588-18.257.243-.419.526-.771 1-.922h.28zm34.161 48.326c-.833-.432-1.543-.818-2.267-1.175-1.943-.958-3.894-1.896-5.832-2.864-.234-.116-.496-.322-.589-.55-.21-.524-.12-1.054.247-1.505.339-.415.788-.346 1.203-.196.79.285 1.575.589 2.34.935 2.128.963 4.244 1.954 6.367 2.93 1.035.476 2.115.531 3.194.233.807-.223 1.083-.935 1.254-1.675.142-.618-.443-.712-.762-.988-.14-.122-.31-.21-.471-.304-1.985-1.146-3.977-2.28-5.955-3.438-1.116-.654-2.22-1.33-3.312-2.026-.57-.361-.685-.963-.364-1.561.307-.571.842-.754 1.46-.488.287.124.571.254.844.402 2.547 1.387 5.087 2.785 7.636 4.165.905.49 1.804 1.005 2.752 1.39 1.844.746 3.652-.469 3.653-2.38 0-.29-.092-.45-.341-.59a157.64 157.64 0 0 1-2.953-1.717c-2.95-1.75-5.902-3.5-8.844-5.264-.656-.393-.87-1.207-.53-1.792.316-.542 1.132-.73 1.768-.37 2.575 1.465 5.139 2.95 7.716 4.411 1.735.984 3.484 1.944 5.232 2.905.554.305 1.157.313 1.773.251 1.224-.121 2.443-2.1 1.366-3.315-.3-.338-.61-.677-.966-.95-2.114-1.63-4.225-3.266-6.371-4.853A109.5 109.5 0 0 0 41.812 17.57c-.976-.476-1.984-.754-3.07-.89-1.148-.143-1.984.12-2.526 1.18-.077.15-.21.272-.323.401-1.945 2.238-4.26 3.858-7.24 4.299a5.826 5.826 0 0 1-1.984-.054c-.905-.186-1.355-.934-1.154-1.839.16-.712.335-1.462.7-2.077.855-1.44 1.828-2.806 2.75-4.204.268-.405.538-.809.78-1.229.178-.31.087-.495-.296-.528a15.396 15.396 0 0 1-1.481-.183c-1.878-.342-3.798-.54-5.488-1.562-.613-.371-1.239-.723-1.858-1.085-.58-.34-.593-.348-.92.218-2.875 4.963-5.742 9.932-8.623 14.892-.19.326-.153.552.11.774.606.517 1.197 1.053 1.827 1.539a7.368 7.368 0 0 1 2.02 2.376c.35.649.722 1.285 1.106 1.913.305.496.424.508.88.18 1.264-.909 2.622-.986 3.794-.218 1.186.78 1.774 2.236 1.492 3.694-.03.155-.051.312-.076.467.478-.426.858-.9 1.26-1.355.784-.891 1.557-1.795 2.38-2.65.513-.531 1.169-.826 1.936-.784 2.528.14 4.03 2.73 2.91 5.024-.126.257-.256.512-.43.859l.49-.172c1.18-.418 2.282-.25 3.259.522 1.342 1.06 1.63 3.06.686 4.502-.264.403-.543.795-.821 1.2.546-.155 1.03-.376 1.527-.415 1.386-.105 2.568.405 3.195 1.675.582 1.179.585 2.458-.116 3.643-.33.557-.354.607.272.804 1.171.369 2.341.77 3.54 1.016 1.304.268 2.636.47 3.962.527 1.334.058 2.366-.704 3.376-1.704zM68.803 0c.401.158.704.415.926.803 4.648 8.1 9.305 16.194 13.952 24.295.517.901.426 1.26-.466 1.804a347.117 347.117 0 0 1-5.581 3.33c-.747.436-1.018.377-1.528-.342-.598-.841-1.183-1.697-1.699-2.59-4.126-7.154-8.235-14.317-12.347-21.478a9.997 9.997 0 0 1-.323-.626c-.311-.644-.242-.982.343-1.413.477-.351.964-.694 1.476-.988 1.648-.945 3.31-1.865 4.967-2.795h.28z"/></g></g></svg>