<svg xmlns="http://www.w3.org/2000/svg" width="17" height="31" viewBox="0 0 17 31"><g><g><path fill="#848484" d="M6.969 15.999c0 1.5-5.716 10.797-5.327 10.373-.387.385-1.714 1.787-1.637 2.366.074.563.378 1.982.925 2.169.536.182 1.044.096 1.46-.311.718-.705 1.427-1.419 2.14-2.13 3.966-3.952 7.932-7.905 11.897-11.859.726-.724.718-1.502-.013-2.232C11.844 9.819 7.278 5.26 2.698.715 2.414.432 2.056.151 1.684.05 1.059-.12.518.14.182.717c-.338.578-.245 2.188.292 2.727C2.319 5.3 6.969 14.5 6.969 16z"/></g></g></svg>