<svg xmlns="http://www.w3.org/2000/svg" width="30" height="31" viewBox="0 0 30 31"><g><g><path fill="#959595" d="M29.934 13.8c0 .607-.488 1.098-1.089 1.098a1.093 1.093 0 0 1-1.088-1.098c0-3.118-1.203-6.049-3.387-8.253a11.428 11.428 0 0 0-8.174-3.42 1.093 1.093 0 0 1-1.089-1.097c0-.607.488-1.1 1.089-1.1 3.669 0 7.119 1.443 9.714 4.062a13.845 13.845 0 0 1 4.024 9.808zM16.196 8.514a1.095 1.095 0 0 1-1.089-1.1c0-.606.488-1.099 1.089-1.099 4.088.002 7.413 3.359 7.413 7.485 0 .607-.487 1.098-1.088 1.098-.602 0-1.09-.491-1.09-1.098 0-2.915-2.348-5.285-5.235-5.286zm9.77 16.035c.267.723.271 1.486.012 2.266-.586 1.757-1.63 3.025-3.022 3.67a4.948 4.948 0 0 1-2.095.453c-.782 0-1.6-.17-2.43-.513-4.147-1.705-7.776-4.09-10.788-7.092l-.022-.022C4.643 20.269 2.275 16.6.583 12.408c-.656-1.628-.676-3.209-.058-4.57.638-1.403 1.895-2.458 3.634-3.05.774-.262 1.53-.257 2.25.014 1.615.6 4.998 5.249 5.092 7.004.086 1.682-1.148 2.533-1.74 2.941a1.083 1.083 0 0 1-1.514-.287 1.107 1.107 0 0 1 .285-1.528c.7-.481.811-.702.795-1.01-.11-.94-2.828-4.685-3.682-5.062-.248-.093-.493-.09-.792.012-1.155.392-1.968 1.044-2.348 1.882-.363.797-.33 1.774.094 2.825 1.581 3.918 3.788 7.342 6.558 10.176l.003.003c2.81 2.801 6.206 5.034 10.092 6.632 1.04.428 2.008.461 2.797.095.831-.384 1.476-1.203 1.865-2.371.1-.301.104-.548.01-.802-.37-.858-4.081-3.603-5.023-3.715-.295-.014-.512.098-.99.804-.34.5-1.017.63-1.514.287a1.105 1.105 0 0 1-.283-1.527c.405-.598 1.25-1.845 2.91-1.758 1.741.096 6.347 3.51 6.943 5.147z"/></g></g></svg>