<svg xmlns="http://www.w3.org/2000/svg" width="30" height="31" viewBox="0 0 30 31"><g><g><path fill="#959595" d="M29.898 29.676a1.183 1.183 0 0 1-1.174 1.278 1.175 1.175 0 0 1-1.164-1.088c-.546-6.574-5.996-11.754-12.617-11.754-6.62 0-12.07 5.18-12.617 11.754a1.175 1.175 0 0 1-1.163 1.088c-.682 0-1.23-.588-1.175-1.278a15.197 15.197 0 0 1 4.344-9.484 14.907 14.907 0 0 1 5.702-3.629 8.832 8.832 0 0 1-3.766-7.251c0-5.195 4.46-9.352 9.7-8.74 3.85.45 6.998 3.538 7.557 7.425.507 3.535-1.073 6.75-3.673 8.566a14.905 14.905 0 0 1 5.703 3.629 15.198 15.198 0 0 1 4.343 9.484zM21.274 9.312c0-3.54-2.84-6.42-6.33-6.42-3.492 0-6.332 2.88-6.332 6.42s2.84 6.422 6.331 6.422c3.491 0 6.331-2.881 6.331-6.422z"/></g></g></svg>