<svg xmlns="http://www.w3.org/2000/svg" width="50" height="50" viewBox="0 0 50 50"><g><g><path fill="#fff" d="M42.677 7.317A24.935 24.935 0 0 1 50 25.004a24.922 24.922 0 0 1-7.323 17.672c-4.527 4.512-10.77 7.32-17.678 7.32-6.907 0-13.15-2.808-17.677-7.32A24.922 24.922 0 0 1 0 25.004 24.935 24.935 0 0 1 7.322 7.317C11.85 2.805 18.092-.003 25-.003c6.908 0 13.151 2.808 17.678 7.32zM24.999 1.962a22.965 22.965 0 0 0-16.293 6.74 22.943 22.943 0 0 0-6.755 16.302 22.936 22.936 0 0 0 6.755 16.289c4.167 4.165 9.926 6.753 16.293 6.753 6.368 0 12.127-2.588 16.294-6.753a22.933 22.933 0 0 0 6.754-16.289 22.94 22.94 0 0 0-6.754-16.302 22.965 22.965 0 0 0-16.294-6.74zm12.514 17.713s.25 2.16.25 4.291V26c0 2.16-.25 4.29-.25 4.29s-.262 1.84-1.024 2.657c-.969 1.066-2.063 1.066-2.547 1.135-3.571.25-8.928.277-8.928.277s-6.645-.07-8.68-.277c-.58-.11-1.855-.07-2.824-1.135-.761-.816-1.024-2.656-1.024-2.656s-.264-2.132-.264-4.29v-2.035c0-2.132.264-4.29.264-4.29s.263-1.84 1.024-2.644c.969-1.05 2.049-1.065 2.56-1.134 3.573-.263 8.915-.263 8.915-.263h.029s5.357 0 8.928.263c.484.069 1.578.083 2.547 1.134.762.804 1.024 2.643 1.024 2.643zm-12.029 2.99l-3.129-1.702v7.472l6.908-3.721z"/></g></g></svg>